{
  "asset": {
    "generator": "Khronos glTF Blender I/O v5.1.19",
    "version": "2.0"
  },
  "scene": 0,
  "scenes": [
    {
      "name": "Scene",
      "nodes": [
        5
      ]
    }
  ],
  "nodes": [
    {
      "mesh": 0,
      "name": "dish_frame",
      "translation": [
        -0.00036194350104779005,
        1.2949798107147217,
        -0.37349045276641846
      ]
    },
    {
      "mesh": 1,
      "name": "foil_silver",
      "translation": [
        -0.00036194350104779005,
        1.7698843479156494,
        -0.37349045276641846
      ]
    },
    {
      "mesh": 2,
      "name": "parts",
      "translation": [
        -0.00016880390467122197,
        -0.5950889587402344,
        -0.8525377511978149
      ]
    },
    {
      "mesh": 3,
      "name": "shiny_panel",
      "translation": [
        -3.139665365219116,
        1.1327431201934814,
        -0.3732984960079193
      ],
      "extensions": {
        "AGI_stk_metadata": {
          "solarPanelGroupName": "SolarPanels"
        }
      }
    },
    {
      "mesh": 4,
      "name": "tex_01",
      "translation": [
        -0.00016880390467122197,
        -0.5950889587402344,
        -0.8525377511978149
      ]
    },
    {
      "children": [
        0,
        1,
        2,
        3,
        4
      ],
      "mesh": 5,
      "name": "BUS",
      "translation": [
        0.00016880390467122197,
        -0.3099195659160614,
        0.37329888343811035
      ]
    }
  ],
  "materials": [
    {
      "name": "AO_dish_frame",
      "pbrMetallicRoughness": {
        "baseColorTexture": {
          "index": 0
        },
        "roughnessFactor": 0.30000001192092896
      }
    },
    {
      "name": "foil silver antenna",
      "normalTexture": {
        "index": 1,
        "scale": 2
      },
      "pbrMetallicRoughness": {
        "baseColorFactor": [
          0.800000011920929,
          0.800000011920929,
          0.800000011920929,
          1
        ],
        "roughnessFactor": 0.30000001192092896
      }
    },
    {
      "name": "AO_parts_02",
      "pbrMetallicRoughness": {
        "baseColorTexture": {
          "index": 2
        },
        "roughnessFactor": 0.30000001192092896
      }
    },
    {
      "name": "AO_parts_03",
      "pbrMetallicRoughness": {
        "baseColorTexture": {
          "index": 3
        },
        "roughnessFactor": 0.30000001192092896
      }
    },
    {
      "name": "AO_parts_01",
      "pbrMetallicRoughness": {
        "baseColorTexture": {
          "index": 4
        },
        "roughnessFactor": 0.30000001192092896
      }
    },
    {
      "name": "AO_parts_05",
      "pbrMetallicRoughness": {
        "baseColorTexture": {
          "index": 5
        },
        "roughnessFactor": 0.30000001192092896
      }
    },
    {
      "name": "AO_parts_04",
      "pbrMetallicRoughness": {
        "baseColorTexture": {
          "index": 6
        },
        "roughnessFactor": 0.30000001192092896
      }
    },
    {
      "name": "shiny_panel",
      "pbrMetallicRoughness": {
        "baseColorTexture": {
          "index": 7
        },
        "roughnessFactor": 0.30000001192092896
      }
    },
    {
      "name": "tex_01",
      "pbrMetallicRoughness": {
        "baseColorTexture": {
          "index": 8
        },
        "roughnessFactor": 0.30000001192092896
      }
    },
    {
      "name": "foil silver",
      "normalTexture": {
        "index": 9,
        "scale": 2
      },
      "pbrMetallicRoughness": {
        "baseColorFactor": [
          1,
          0.999999463558197,
          1,
          1
        ],
        "roughnessFactor": 0.30000001192092896
      }
    },
    {
      "name": "thruster",
      "pbrMetallicRoughness": {
        "baseColorTexture": {
          "index": 10
        },
        "roughnessFactor": 0.30000001192092896
      }
    }
  ],
  "meshes": [
    {
      "name": "Cylinder.000",
      "primitives": [
        {
          "attributes": {
            "POSITION": 0,
            "NORMAL": 1,
            "TEXCOORD_0": 2
          },
          "indices": 3,
          "material": 0
        }
      ]
    },
    {
      "name": "Cylinder.001",
      "primitives": [
        {
          "attributes": {
            "POSITION": 4,
            "NORMAL": 5,
            "TEXCOORD_0": 6
          },
          "indices": 7,
          "material": 1
        }
      ]
    },
    {
      "name": "MavenOrbitWide1_0_APP1_0_pCube13.001",
      "primitives": [
        {
          "attributes": {
            "POSITION": 8,
            "NORMAL": 9,
            "TEXCOORD_0": 10
          },
          "indices": 11,
          "material": 2
        },
        {
          "attributes": {
            "POSITION": 12,
            "NORMAL": 13,
            "TEXCOORD_0": 14
          },
          "indices": 15,
          "material": 3
        },
        {
          "attributes": {
            "POSITION": 16,
            "NORMAL": 17,
            "TEXCOORD_0": 18
          },
          "indices": 19,
          "material": 4
        },
        {
          "attributes": {
            "POSITION": 20,
            "NORMAL": 21,
            "TEXCOORD_0": 22
          },
          "indices": 23,
          "material": 5
        },
        {
          "attributes": {
            "POSITION": 24,
            "NORMAL": 25,
            "TEXCOORD_0": 26
          },
          "indices": 27,
          "material": 6
        }
      ]
    },
    {
      "name": "MavenOrbitWide1_0_APP1_0_pCube13.002",
      "primitives": [
        {
          "attributes": {
            "POSITION": 28,
            "NORMAL": 29,
            "TEXCOORD_0": 30
          },
          "indices": 31,
          "material": 7
        }
      ]
    },
    {
      "name": "MavenOrbitWide1_0_APP1_0_pCube13.003",
      "primitives": [
        {
          "attributes": {
            "POSITION": 32,
            "NORMAL": 33,
            "TEXCOORD_0": 34
          },
          "indices": 35,
          "material": 8
        },
        {
          "attributes": {
            "POSITION": 36,
            "NORMAL": 37,
            "TEXCOORD_0": 38
          },
          "indices": 39,
          "material": 9
        },
        {
          "attributes": {
            "POSITION": 40,
            "NORMAL": 41,
            "TEXCOORD_0": 42
          },
          "indices": 43,
          "material": 10
        }
      ]
    },
    {
      "name": "MavenOrbitWide1_0_APP1_0_pCube13.000",
      "primitives": [
        {
          "attributes": {
            "POSITION": 44,
            "NORMAL": 45,
            "TEXCOORD_0": 46
          },
          "indices": 47,
          "material": 1
        }
      ]
    }
  ],
  "textures": [
    {
      "sampler": 0,
      "source": 0
    },
    {
      "sampler": 0,
      "source": 1
    },
    {
      "sampler": 0,
      "source": 2
    },
    {
      "sampler": 0,
      "source": 3
    },
    {
      "sampler": 0,
      "source": 4
    },
    {
      "sampler": 0,
      "source": 5
    },
    {
      "sampler": 0,
      "source": 6
    },
    {
      "sampler": 0,
      "source": 7
    },
    {
      "sampler": 0,
      "source": 8
    },
    {
      "sampler": 0,
      "source": 9
    },
    {
      "sampler": 0,
      "source": 10
    }
  ],
  "images": [
    {
      "name": "maven_AO_dish_frame",
      "uri": "24882_MAVEN_v1_img0.png"
    },
    {
      "name": "foil_n_2",
      "uri": "24882_MAVEN_v1_img1.png"
    },
    {
      "name": "maven_AO_parts_02",
      "uri": "24882_MAVEN_v1_img2.png"
    },
    {
      "name": "maven_AO_parts_03",
      "uri": "24882_MAVEN_v1_img3.png"
    },
    {
      "name": "maven_AO_parts_01",
      "uri": "24882_MAVEN_v1_img4.png"
    },
    {
      "name": "maven_AO_parts_05",
      "uri": "24882_MAVEN_v1_img5.png"
    },
    {
      "name": "maven_AO_parts_04",
      "uri": "24882_MAVEN_v1_img6.png"
    },
    {
      "name": "maven_tex_01_new",
      "uri": "24882_MAVEN_v1_img7.png"
    },
    {
      "name": "maven_tex_01_new.png",
      "uri": "24882_MAVEN_v1_img8.png"
    },
    {
      "name": "foil_n.jpg",
      "uri": "24882_MAVEN_v1_img9.png"
    },
    {
      "name": "maven_tex_01",
      "uri": "24882_MAVEN_v1_img10.png"
    }
  ],
  "accessors": [
    {
      "bufferView": 0,
      "componentType": 5126,
      "count": 1520,
      "max": [
        0.9989040493965149,
        0.17253313958644867,
        0.9989040493965149
      ],
      "min": [
        -0.9989040493965149,
        -0.17253313958644867,
        -0.9989040493965149
      ],
      "type": "VEC3"
    },
    {
      "bufferView": 1,
      "componentType": 5126,
      "count": 1520,
      "type": "VEC3"
    },
    {
      "bufferView": 2,
      "componentType": 5126,
      "count": 1520,
      "type": "VEC2"
    },
    {
      "bufferView": 3,
      "componentType": 5123,
      "count": 4782,
      "type": "SCALAR"
    },
    {
      "bufferView": 4,
      "componentType": 5126,
      "count": 289,
      "max": [
        0.9989039897918701,
        0.31401941180229187,
        0.9989039897918701
      ],
      "min": [
        -0.9989039897918701,
        -0.30237138271331787,
        -0.9989039897918701
      ],
      "type": "VEC3"
    },
    {
      "bufferView": 5,
      "componentType": 5126,
      "count": 289,
      "type": "VEC3"
    },
    {
      "bufferView": 6,
      "componentType": 5126,
      "count": 289,
      "type": "VEC2"
    },
    {
      "bufferView": 7,
      "componentType": 5123,
      "count": 1584,
      "type": "SCALAR"
    },
    {
      "bufferView": 8,
      "componentType": 5126,
      "count": 8983,
      "max": [
        1.1500474214553833,
        1.9381356239318848,
        1.8360953330993652
      ],
      "min": [
        -1.2558097839355469,
        0.08337251842021942,
        -0.8811256289482117
      ],
      "type": "VEC3"
    },
    {
      "bufferView": 9,
      "componentType": 5126,
      "count": 8983,
      "type": "VEC3"
    },
    {
      "bufferView": 10,
      "componentType": 5126,
      "count": 8983,
      "type": "VEC2"
    },
    {
      "bufferView": 11,
      "componentType": 5123,
      "count": 20364,
      "type": "SCALAR"
    },
    {
      "bufferView": 12,
      "componentType": 5126,
      "count": 845,
      "max": [
        1.1492594480514526,
        1.7490062713623047,
        1.7307393550872803
      ],
      "min": [
        -1.1492594480514526,
        -0.026505902409553528,
        -0.7725104689598083
      ],
      "type": "VEC3"
    },
    {
      "bufferView": 13,
      "componentType": 5126,
      "count": 845,
      "type": "VEC3"
    },
    {
      "bufferView": 14,
      "componentType": 5126,
      "count": 845,
      "type": "VEC2"
    },
    {
      "bufferView": 15,
      "componentType": 5123,
      "count": 1482,
      "type": "SCALAR"
    },
    {
      "bufferView": 16,
      "componentType": 5126,
      "count": 6713,
      "max": [
        1.0482027530670166,
        2.0517470836639404,
        2.007309675216675
      ],
      "min": [
        -1.0001662969589233,
        -1.281733751296997,
        -2.007309675216675
      ],
      "type": "VEC3"
    },
    {
      "bufferView": 17,
      "componentType": 5126,
      "count": 6713,
      "type": "VEC3"
    },
    {
      "bufferView": 18,
      "componentType": 5126,
      "count": 6713,
      "type": "VEC2"
    },
    {
      "bufferView": 19,
      "componentType": 5123,
      "count": 18180,
      "type": "SCALAR"
    },
    {
      "bufferView": 20,
      "componentType": 5126,
      "count": 2868,
      "max": [
        5.622307777404785,
        2.620635509490967,
        1.3517282009124756
      ],
      "min": [
        -5.622307777404785,
        2.4002022743225098,
        -0.44700878858566284
      ],
      "type": "VEC3"
    },
    {
      "bufferView": 21,
      "componentType": 5126,
      "count": 2868,
      "type": "VEC3"
    },
    {
      "bufferView": 22,
      "componentType": 5126,
      "count": 2868,
      "type": "VEC2"
    },
    {
      "bufferView": 23,
      "componentType": 5123,
      "count": 5892,
      "type": "SCALAR"
    },
    {
      "bufferView": 24,
      "componentType": 5126,
      "count": 5444,
      "max": [
        0.7810582518577576,
        2.4011008739471436,
        3.8749611377716064
      ],
      "min": [
        -0.3751271367073059,
        1.421364188194275,
        2.9493026733398438
      ],
      "type": "VEC3"
    },
    {
      "bufferView": 25,
      "componentType": 5126,
      "count": 5444,
      "type": "VEC3"
    },
    {
      "bufferView": 26,
      "componentType": 5126,
      "count": 5444,
      "type": "VEC2"
    },
    {
      "bufferView": 27,
      "componentType": 5123,
      "count": 12267,
      "type": "SCALAR"
    },
    {
      "bufferView": 28,
      "componentType": 5126,
      "count": 22,
      "max": [
        8.022127151489258,
        0.6112866401672363,
        1.0197439193725586
      ],
      "min": [
        -1.743135690689087,
        -0.021767035126686096,
        -1.073501467704773
      ],
      "type": "VEC3"
    },
    {
      "bufferView": 29,
      "componentType": 5126,
      "count": 22,
      "type": "VEC3"
    },
    {
      "bufferView": 30,
      "componentType": 5126,
      "count": 22,
      "type": "VEC2"
    },
    {
      "bufferView": 31,
      "componentType": 5123,
      "count": 42,
      "type": "SCALAR"
    },
    {
      "bufferView": 32,
      "componentType": 5126,
      "count": 12907,
      "max": [
        6.546920299530029,
        2.568472385406494,
        3.6331522464752197
      ],
      "min": [
        -6.579179286956787,
        -2.741116523742676,
        -4.340839385986328
      ],
      "type": "VEC3"
    },
    {
      "bufferView": 33,
      "componentType": 5126,
      "count": 12907,
      "type": "VEC3"
    },
    {
      "bufferView": 34,
      "componentType": 5126,
      "count": 12907,
      "type": "VEC2"
    },
    {
      "bufferView": 35,
      "componentType": 5123,
      "count": 38841,
      "type": "SCALAR"
    },
    {
      "bufferView": 36,
      "componentType": 5126,
      "count": 33,
      "max": [
        5.512777328491211,
        2.568472385406494,
        0.8119809031486511
      ],
      "min": [
        -5.521516799926758,
        2.339118242263794,
        0.09273941814899445
      ],
      "type": "VEC3"
    },
    {
      "bufferView": 37,
      "componentType": 5126,
      "count": 33,
      "type": "VEC3"
    },
    {
      "bufferView": 38,
      "componentType": 5126,
      "count": 33,
      "type": "VEC2"
    },
    {
      "bufferView": 39,
      "componentType": 5123,
      "count": 81,
      "type": "SCALAR"
    },
    {
      "bufferView": 40,
      "componentType": 5126,
      "count": 5310,
      "max": [
        0.6630153059959412,
        0.0924791544675827,
        1.142254114151001
      ],
      "min": [
        -0.6630153059959412,
        -0.759006142616272,
        -0.1837763786315918
      ],
      "type": "VEC3"
    },
    {
      "bufferView": 41,
      "componentType": 5126,
      "count": 5310,
      "type": "VEC3"
    },
    {
      "bufferView": 42,
      "componentType": 5126,
      "count": 5310,
      "type": "VEC2"
    },
    {
      "bufferView": 43,
      "componentType": 5123,
      "count": 21090,
      "type": "SCALAR"
    },
    {
      "bufferView": 44,
      "componentType": 5126,
      "count": 1804,
      "max": [
        1.1737562417984009,
        1.601547360420227,
        2.7771782875061035
      ],
      "min": [
        -1.1737562417984009,
        -1.6015472412109375,
        -2.7771782875061035
      ],
      "type": "VEC3"
    },
    {
      "bufferView": 45,
      "componentType": 5126,
      "count": 1804,
      "type": "VEC3"
    },
    {
      "bufferView": 46,
      "componentType": 5126,
      "count": 1804,
      "type": "VEC2"
    },
    {
      "bufferView": 47,
      "componentType": 5123,
      "count": 9660,
      "type": "SCALAR"
    }
  ],
  "bufferViews": [
    {
      "buffer": 0,
      "byteLength": 18240,
      "byteOffset": 0,
      "target": 34962
    },
    {
      "buffer": 0,
      "byteLength": 18240,
      "byteOffset": 18240,
      "target": 34962
    },
    {
      "buffer": 0,
      "byteLength": 12160,
      "byteOffset": 36480,
      "target": 34962
    },
    {
      "buffer": 0,
      "byteLength": 9564,
      "byteOffset": 48640,
      "target": 34963
    },
    {
      "buffer": 0,
      "byteLength": 3468,
      "byteOffset": 58204,
      "target": 34962
    },
    {
      "buffer": 0,
      "byteLength": 3468,
      "byteOffset": 61672,
      "target": 34962
    },
    {
      "buffer": 0,
      "byteLength": 2312,
      "byteOffset": 65140,
      "target": 34962
    },
    {
      "buffer": 0,
      "byteLength": 3168,
      "byteOffset": 67452,
      "target": 34963
    },
    {
      "buffer": 0,
      "byteLength": 107796,
      "byteOffset": 70620,
      "target": 34962
    },
    {
      "buffer": 0,
      "byteLength": 107796,
      "byteOffset": 178416,
      "target": 34962
    },
    {
      "buffer": 0,
      "byteLength": 71864,
      "byteOffset": 286212,
      "target": 34962
    },
    {
      "buffer": 0,
      "byteLength": 40728,
      "byteOffset": 358076,
      "target": 34963
    },
    {
      "buffer": 0,
      "byteLength": 10140,
      "byteOffset": 398804,
      "target": 34962
    },
    {
      "buffer": 0,
      "byteLength": 10140,
      "byteOffset": 408944,
      "target": 34962
    },
    {
      "buffer": 0,
      "byteLength": 6760,
      "byteOffset": 419084,
      "target": 34962
    },
    {
      "buffer": 0,
      "byteLength": 2964,
      "byteOffset": 425844,
      "target": 34963
    },
    {
      "buffer": 0,
      "byteLength": 80556,
      "byteOffset": 428808,
      "target": 34962
    },
    {
      "buffer": 0,
      "byteLength": 80556,
      "byteOffset": 509364,
      "target": 34962
    },
    {
      "buffer": 0,
      "byteLength": 53704,
      "byteOffset": 589920,
      "target": 34962
    },
    {
      "buffer": 0,
      "byteLength": 36360,
      "byteOffset": 643624,
      "target": 34963
    },
    {
      "buffer": 0,
      "byteLength": 34416,
      "byteOffset": 679984,
      "target": 34962
    },
    {
      "buffer": 0,
      "byteLength": 34416,
      "byteOffset": 714400,
      "target": 34962
    },
    {
      "buffer": 0,
      "byteLength": 22944,
      "byteOffset": 748816,
      "target": 34962
    },
    {
      "buffer": 0,
      "byteLength": 11784,
      "byteOffset": 771760,
      "target": 34963
    },
    {
      "buffer": 0,
      "byteLength": 65328,
      "byteOffset": 783544,
      "target": 34962
    },
    {
      "buffer": 0,
      "byteLength": 65328,
      "byteOffset": 848872,
      "target": 34962
    },
    {
      "buffer": 0,
      "byteLength": 43552,
      "byteOffset": 914200,
      "target": 34962
    },
    {
      "buffer": 0,
      "byteLength": 24536,
      "byteOffset": 957752,
      "target": 34963
    },
    {
      "buffer": 0,
      "byteLength": 264,
      "byteOffset": 982288,
      "target": 34962
    },
    {
      "buffer": 0,
      "byteLength": 264,
      "byteOffset": 982552,
      "target": 34962
    },
    {
      "buffer": 0,
      "byteLength": 176,
      "byteOffset": 982816,
      "target": 34962
    },
    {
      "buffer": 0,
      "byteLength": 84,
      "byteOffset": 982992,
      "target": 34963
    },
    {
      "buffer": 0,
      "byteLength": 154884,
      "byteOffset": 983076,
      "target": 34962
    },
    {
      "buffer": 0,
      "byteLength": 154884,
      "byteOffset": 1137960,
      "target": 34962
    },
    {
      "buffer": 0,
      "byteLength": 103256,
      "byteOffset": 1292844,
      "target": 34962
    },
    {
      "buffer": 0,
      "byteLength": 77684,
      "byteOffset": 1396100,
      "target": 34963
    },
    {
      "buffer": 0,
      "byteLength": 396,
      "byteOffset": 1473784,
      "target": 34962
    },
    {
      "buffer": 0,
      "byteLength": 396,
      "byteOffset": 1474180,
      "target": 34962
    },
    {
      "buffer": 0,
      "byteLength": 264,
      "byteOffset": 1474576,
      "target": 34962
    },
    {
      "buffer": 0,
      "byteLength": 164,
      "byteOffset": 1474840,
      "target": 34963
    },
    {
      "buffer": 0,
      "byteLength": 63720,
      "byteOffset": 1475004,
      "target": 34962
    },
    {
      "buffer": 0,
      "byteLength": 63720,
      "byteOffset": 1538724,
      "target": 34962
    },
    {
      "buffer": 0,
      "byteLength": 42480,
      "byteOffset": 1602444,
      "target": 34962
    },
    {
      "buffer": 0,
      "byteLength": 42180,
      "byteOffset": 1644924,
      "target": 34963
    },
    {
      "buffer": 0,
      "byteLength": 21648,
      "byteOffset": 1687104,
      "target": 34962
    },
    {
      "buffer": 0,
      "byteLength": 21648,
      "byteOffset": 1708752,
      "target": 34962
    },
    {
      "buffer": 0,
      "byteLength": 14432,
      "byteOffset": 1730400,
      "target": 34962
    },
    {
      "buffer": 0,
      "byteLength": 19320,
      "byteOffset": 1744832,
      "target": 34963
    }
  ],
  "samplers": [
    {
      "magFilter": 9729,
      "minFilter": 9987
    }
  ],
  "buffers": [
    {
      "uri": "24882_MAVEN_v1_data.bin",
      "byteLength": 1764152
    }
  ],
  "extensions": {
    "AGI_stk_metadata": {
      "solarPanelGroups": [
        {
          "name": "SolarPanels",
          "efficiency": 22
        }
      ]
    }
  },
  "extensionsUsed": [
    "AGI_stk_metadata"
  ]
}
